<svg xmlns="http://www.w3.org/2000/svg" width="1024" height="1024" viewBox="0 0 1024 1024">
  <defs>
    <linearGradient id="fGrad" x1="0%" y1="0%" x2="60%" y2="100%">
      <stop offset="0%"   stop-color="#D6C3AB" />
      <stop offset="50%"  stop-color="#9A7B5E" />
      <stop offset="100%" stop-color="#3E3028" />
    </linearGradient>
  </defs>
  <g transform="translate(0,1024) scale(0.1,-0.1)" fill="url(#fGrad)">
    <path d="M5317 8980 c-82 -14 -139 -57 -354 -270 -2402 -2369 -2974 -2940
-3006 -2997 -46 -85 -48 -126 -45 -943 l3 -765 813 0 813 0 -283 -274 c-156
-151 -483 -475 -728 -720 -388 -389 -451 -456 -493 -527 -59 -100 -90 -175
-113 -274 -14 -65 -17 -144 -19 -580 -3 -642 3 -781 34 -835 62 -112 187 -134
761 -135 357 0 662 14 764 35 38 8 87 26 109 40 74 50 69 -82 67 1697 l-1
1598 2533 0 2533 0 3 860 2 860 -1484 0 c-995 0 -1510 -4 -1563 -11 -125 -17
-231 -47 -332 -95 -175 -82 -122 -35 -1031 -924 -250 -245 -501 -490 -557
-544 l-103 -100 0 1597 0 1597 2298 2 2297 3 66 26 c104 40 157 76 250 168 86
86 171 208 555 796 61 94 177 270 257 393 177 269 200 308 192 322 -8 12
-4164 12 -4238 0z"/>
  </g>
</svg>
